<svg width="90" height="90" viewBox="0 0 90 90" fill="none" xmlns="http://www.w3.org/2000/svg">
<rect width="90" height="90" fill="#F5F5F5"/>
<rect width="90" height="90" rx="10" fill="#26355D"/>
<path d="M29.85 45.95C28.3833 45.45 27.05 44.95 25.85 44.45C24.65 43.9167 23.6167 43.2833 22.75 42.55C21.8833 41.8167 21.2 40.95 20.7 39.95C20.2333 38.9167 20 37.6667 20 36.2C20 33.3667 21.0833 31.1 23.25 29.4C25.45 27.7 28.5167 26.85 32.45 26.85C33.8833 26.85 35.2167 26.95 36.45 27.15C37.6833 27.35 38.7333 27.6667 39.6 28.1C40.5 28.5 41.2 29.0333 41.7 29.7C42.2 30.3333 42.45 31.0833 42.45 31.95C42.45 32.8167 42.25 33.5667 41.85 34.2C41.45 34.8 40.9667 35.3167 40.4 35.75C39.6667 35.2833 38.6833 34.8833 37.45 34.55C36.2167 34.1833 34.8667 34 33.4 34C31.9 34 30.8 34.2167 30.1 34.65C29.4 35.05 29.05 35.5667 29.05 36.2C29.05 36.7 29.2667 37.1167 29.7 37.45C30.1333 37.75 30.7833 38.0333 31.65 38.3L34.3 39.15C37.4333 40.15 39.8333 41.4333 41.5 43C43.2 44.5333 44.05 46.6333 44.05 49.3C44.05 52.1333 42.9333 54.4333 40.7 56.2C38.4667 57.9333 35.1833 58.8 30.85 58.8C29.3167 58.8 27.8833 58.6667 26.55 58.4C25.25 58.1667 24.1 57.8167 23.1 57.35C22.1333 56.85 21.3667 56.25 20.8 55.55C20.2667 54.8167 20 53.9833 20 53.05C20 52.0833 20.2833 51.2667 20.85 50.6C21.4167 49.9 22.0333 49.3667 22.7 49C23.6333 49.7333 24.7667 50.3667 26.1 50.9C27.4667 51.4333 28.95 51.7 30.55 51.7C32.1833 51.7 33.3333 51.45 34 50.95C34.6667 50.45 35 49.8667 35 49.2C35 48.5333 34.7333 48.0333 34.2 47.7C33.6667 47.3333 32.9167 46.9833 31.95 46.65L29.85 45.95ZM57.5891 46.75V57.8C57.2224 57.9 56.6391 58 55.8391 58.1C55.0391 58.2 54.2557 58.25 53.4891 58.25C52.7224 58.25 52.0391 58.1833 51.4391 58.05C50.8724 57.95 50.3891 57.75 49.9891 57.45C49.5891 57.15 49.2891 56.7333 49.0891 56.2C48.8891 55.6667 48.7891 54.9667 48.7891 54.1V27.7C49.1557 27.6333 49.7391 27.55 50.5391 27.45C51.3391 27.3167 52.1057 27.25 52.8391 27.25C53.6057 27.25 54.2724 27.3167 54.8391 27.45C55.4391 27.55 55.9391 27.75 56.3391 28.05C56.7391 28.35 57.0391 28.7667 57.2391 29.3C57.4391 29.8333 57.5391 30.5333 57.5391 31.4V39.35L67.9391 27.4C70.2057 27.4 71.8224 27.8333 72.7891 28.7C73.7891 29.5333 74.2891 30.5333 74.2891 31.7C74.2891 32.5667 74.0724 33.3833 73.6391 34.15C73.2057 34.9167 72.5057 35.7833 71.5391 36.75L65.2891 43C66.1224 43.9333 66.9891 44.9 67.8891 45.9C68.8224 46.9 69.7224 47.8833 70.5891 48.85C71.4891 49.7833 72.3391 50.6833 73.1391 51.55C73.9724 52.4167 74.6891 53.1667 75.2891 53.8C75.2891 54.5333 75.1557 55.1833 74.8891 55.75C74.6224 56.3167 74.2557 56.8 73.7891 57.2C73.3557 57.6 72.8557 57.9 72.2891 58.1C71.7224 58.3 71.1224 58.4 70.4891 58.4C69.1224 58.4 68.0057 58.0667 67.1391 57.4C66.2724 56.7 65.4391 55.8833 64.6391 54.95L57.5891 46.75Z" fill="white"/>
</svg>
