<svg width="1653" height="170" viewBox="0 0 1653 170" fill="none" xmlns="http://www.w3.org/2000/svg">
<path d="M0 136.061L55.1 119.092C110.2 102.122 220.4 68.1834 330.6 39.8656C440.8 11.9721 551 -11.3609 661.2 5.92675C771.4 22.578 881.6 79.8499 991.8 96.5011C1102 113.789 1212.2 90.4558 1322.4 96.5011C1432.6 102.122 1542.8 136.061 1597.9 153.031L1653 170H1597.9C1542.8 170 1432.6 170 1322.4 170C1212.2 170 1102 170 991.8 170C881.6 170 771.4 170 661.2 170C551 170 440.8 170 330.6 170C220.4 170 110.2 170 55.1 170H0V136.061Z" fill="#26355D"/>
</svg>
